<svg version="1.2" baseProfile="tiny-ps" xmlns="http://www.w3.org/2000/svg" viewBox="0 0 2000 2000" width="2000" height="2000">
	<title>dirigible-logo-2Kx2K-svg</title>
	<style>
		tspan { white-space:pre }
		.shp0 { fill: #fecc04 } 
		.shp1 { fill: #ffffff } 
	</style>
	<g id="Layer_2">
		<path id="Layer" class="shp0" d="M1000 2000C447 2000 0 1553 0 1000C0 447 447 0 1000 0C1553 0 2000 447 2000 1000C2000 1553 1553 2000 1000 2000Z" />
	</g>
	<g id="Layer_1">
		<path id="Layer" class="shp1" d="M956.31 1452.37C555.76 1452.37 231.98 1242.32 231.98 982.46C231.98 722.6 555.76 512.55 956.31 512.55C1356.86 512.55 1680.64 722.6 1680.64 982.46C1680.64 1242.32 1356.86 1452.37 956.31 1452.37Z" />
		<path id="Layer" class="shp1" d="M656.94 1402.86C659.3 1439.88 667.74 1493.47 699.05 1532.36C724.74 1564.27 755.36 1574.48 933.44 1573.49C1083.99 1572.65 1116.58 1565.18 1147.62 1532.36C1181.15 1496.9 1195.92 1449.78 1202.94 1418.68" />
		<path id="Layer" class="shp1" d="M1361.66 636.78L1564.17 538.13L1730.32 587.46L1615.54 861.47" />
		<path id="Layer" class="shp1" d="M1616.44 1101.9L1685.75 1361.52L1528.17 1402.07L1406.24 1317.4" />
	</g>
</svg>