<?xml version="1.0" encoding="utf-8"?>
<!-- Generator: Adobe Illustrator 25.2.1, SVG Export Plug-In . SVG Version: 6.00 Build 0)  -->
<svg version="1.1" id="Layer_1" xmlns="http://www.w3.org/2000/svg" xmlns:xlink="http://www.w3.org/1999/xlink" x="0px" y="0px"
	 viewBox="0 0 1000 876.99" style="enable-background:new 0 0 1000 876.99;" xml:space="preserve">
<style type="text/css">
	.st0{opacity:0.5;fill:url(#SVGID_1_);}
	.st1{opacity:0.5;fill:url(#SVGID_2_);}
	.st2{fill:#FDCB04;}
	.st3{fill:#191400;}
	.st4{fill:#4C3D00;stroke:#191400;stroke-width:3;stroke-miterlimit:10;}
	.st5{opacity:0.5;}
	.st6{fill:url(#SVGID_3_);}
	.st7{fill:url(#SVGID_4_);}
	.st8{opacity:0.5;fill:url(#SVGID_5_);}
	.st9{opacity:0.5;fill:url(#SVGID_6_);}
	.st10{opacity:0.5;fill:url(#SVGID_7_);}
</style>
<g>
	<linearGradient id="SVGID_1_" gradientUnits="userSpaceOnUse" x1="95.957" y1="486.6982" x2="496.906" y2="486.6982">
		<stop  offset="0" style="stop-color:#F7F1DB"/>
		<stop  offset="0.0659" style="stop-color:#F8E8A9"/>
		<stop  offset="0.1342" style="stop-color:#FAE17E"/>
		<stop  offset="0.2059" style="stop-color:#FBDA58"/>
		<stop  offset="0.28" style="stop-color:#FCD43A"/>
		<stop  offset="0.3575" style="stop-color:#FCD022"/>
		<stop  offset="0.4397" style="stop-color:#FDCD11"/>
		<stop  offset="0.5298" style="stop-color:#FDCC07"/>
		<stop  offset="0.6432" style="stop-color:#FDCB04"/>
	</linearGradient>
	<path class="st0" d="M496.91,493.88c-4.16-12.83-12.21-30.93-28.75-45.56c-40.89-36.19-104.38-25.23-143.73-18.44
		c-62.47,10.78-74.31,30.02-133.97,34.71c-32.13,2.53-58.87-0.68-76.48-3.8c1.45,3.76,5.53,12.75,15.19,19.53
		c6.81,4.77,13.5,6.41,17.36,7.05c-10.12,2.35-20.25,4.7-30.37,7.05c3.03,8.11,5.33,18.79,1.63,29.29
		c-5.79,16.41-22.3,21.19-21.82,24.22c1.02,6.43,77.69,2.72,355.75-31.34c2.57-3.34,6.02-7.09,10.58-10.58
		C475.58,495.84,490,494.18,496.91,493.88z"/>
	<linearGradient id="SVGID_2_" gradientUnits="userSpaceOnUse" x1="496.906" y1="490.8209" x2="912.562" y2="490.8209">
		<stop  offset="0.7102" style="stop-color:#FDCB04"/>
		<stop  offset="0.7422" style="stop-color:#FDCC09"/>
		<stop  offset="0.7819" style="stop-color:#FCCF19"/>
		<stop  offset="0.8257" style="stop-color:#FCD332"/>
		<stop  offset="0.8724" style="stop-color:#FBD955"/>
		<stop  offset="0.9214" style="stop-color:#F9E182"/>
		<stop  offset="0.9717" style="stop-color:#F8EBB9"/>
		<stop  offset="1" style="stop-color:#F7F1DB"/>
	</linearGradient>
	<path class="st1" d="M496.91,493.88c5.1-13.64,15.27-34.05,35.8-48.27c16.22-11.24,37.96-17.92,94.92-12.47
		c74.22,7.1,97.21,24.08,159.46,31.46c39.47,4.68,72.46,2.86,94.37,0.54c-5.6,8.14-11.21,16.27-16.81,24.41
		c5.42,0.36,10.85,0.72,16.27,1.08c0.45,7.42,2.09,18.46,8.21,29.78c9.88,18.29,23.95,23.38,23.43,26.63
		c-1.16,7.27-75.83,5.49-384.93-31.56c-0.93-2.91-3.27-8.77-8.92-13.79C509.91,493.89,499.52,493.82,496.91,493.88z"/>
	<path class="st2" d="M533.16,515.24c3.08-3.2-2.4-18.24-11.21-20.25c-4.36-0.99-7.04,2.08-11.93,0c-4.29-1.83-4.98-5.36-8.86-5.61
		c-2.8-0.18-3.01,1.63-6.51,1.99c-4.8,0.49-6.22-2.74-10.67-2.35c-3.53,0.31-3.2,2.51-7.59,3.8c-6.85,2-11.84-1.34-13.56,1.08
		c-1.3,1.83,0.92,4.59-0.54,5.97c-1.31,1.24-3.6-0.45-5.97,0c-5.32,1.01-9.41,10.54-6.87,15c0.26,0.45,0.69,1.18,1.51,1.48
		c2.82,1.02,7.01-4.19,8.43-5.82c7.27-8.33,22.26-14.67,34.89-14.1c10.84,0.49,19.48,6.04,22.24,8.14c3.41,2.59,5.12,3.88,6.69,5.97
		c1.72,2.28,2.32,4.01,4.4,4.93C529.26,516.2,531.97,516.48,533.16,515.24z"/>
	<path class="st3" d="M90.09,566.35c-8.66-3.16-9.19-7.38-9.19-7.38c-0.36-2.83,2.1-5.61,2.89-6.51c2.36-2.68,5.23-3.64,6.51-3.98
		c153.66-15.73,354.73-36.11,359.38-35.47c1.2,0.16,2.21,0.76,2.21,0.76c2.74,1.63,4.18,5.69,3.62,8.68
		c-1.05,5.57-8.94,6.62-8.68,8.68c0.4,3.2,19.6,2.59,42.65,2.87c23.85,0.29,35.95,1.33,38.35-4.31c1.75-4.12-3.42-7.67-2.17-11.57
		c3.81-11.88,54.96-4.34,54.96-4.34c46.16,6.81,159.05,17.87,331.94,33.27c3.44,0.86,6.04,3.47,6.51,6.51
		c0.63,4.12-2.72,8.69-7.95,9.4c-121.22-11.38-242.44-22.76-363.66-34.14c-1.45,3.81-4.12,9.3-9.22,14.1
		c-5.15,4.85-13.18,9.37-47.73,9.76c-42.7,0.49-48.82-6.21-50.98-9.22c-3.75-5.22-4.28-11.4-4.06-16.01
		C335.04,540.94,104.03,571.44,90.09,566.35z"/>
	<path class="st4" d="M86.83,563.28c3.22,2.82,6.65,5.68,10.29,8.55c5.35,4.21,10.57,7.98,15.6,11.36
		c107.51-12.29,215.02-24.59,322.53-36.88c0.6,2.67,1.89,6.66,5.06,10.12c9.51,10.38,24.02,2.96,56.41,4.34
		c21.65,0.92,30.99,4.9,39.05-2.17c5.16-4.52,6.89-11.03,7.55-15.66c115.12,13.42,230.24,26.84,345.36,40.25
		c4.75-3.4,9.89-7.48,15.14-12.35c3.97-3.68,7.48-7.32,10.55-10.78c-123.79-11.34-247.58-22.67-371.37-34.01
		c-1.44,4.18-4.4,10.4-10.56,13.7c-3.49,1.87-6.71,2.1-8.24,2.21c-19.91,1.43-30.71,2.08-72.32-0.72c-2.87-0.19-8.41-0.55-12.35-4.6
		c-3.75-3.85-4.25-9.17-4.28-12.03C319.12,537.5,202.97,550.39,86.83,563.28z"/>
	<g class="st5">
		<linearGradient id="SVGID_3_" gradientUnits="userSpaceOnUse" x1="383.8839" y1="324.7303" x2="617.3074" y2="324.7303">
			<stop  offset="0.0628" style="stop-color:#FDCB04"/>
			<stop  offset="0.3216" style="stop-color:#FDCB04"/>
			<stop  offset="0.5385" style="stop-color:#F7F1DB"/>
			<stop  offset="1" style="stop-color:#FDCB04"/>
		</linearGradient>
		<path class="st6" d="M606.34,313.39c-39.18,4.49-166.63,18.14-182.69,1.56c-0.35-0.37-0.82-0.9-1.09-1.52
			c-6.04-0.82-12.37-1.58-19.03-2.24c-6.11-0.6-12-1.08-17.67-1.45c-0.12,0.19-0.25,0.37-0.35,0.56
			c-4.05,7.87,0.72,14.32,0.72,14.32c7.05,9.53,27.54,12.2,36.88,13.42c52.98,6.92,177.28-9.55,194.19-11.83
			C613.65,321.93,610,317.66,606.34,313.39z"/>
		<linearGradient id="SVGID_4_" gradientUnits="userSpaceOnUse" x1="398.9384" y1="300.1122" x2="601.0178" y2="300.1122">
			<stop  offset="0.0628" style="stop-color:#FDCB04"/>
			<stop  offset="0.3216" style="stop-color:#FDCB04"/>
			<stop  offset="0.5385" style="stop-color:#F7F1DB"/>
			<stop  offset="1" style="stop-color:#FDCB04"/>
		</linearGradient>
		<path class="st7" d="M435.48,306.42c28.43-5.16,98.5-4.76,165.53-2.99c-1.69-2.61-3.37-5.23-5.06-7.84
			c-42.75-1.66-157.04-5.17-197.02,6.83C413.06,303.74,426.2,305,435.48,306.42z"/>
	</g>
	<linearGradient id="SVGID_5_" gradientUnits="userSpaceOnUse" x1="395.0643" y1="393.5546" x2="485.9742" y2="393.5546">
		<stop  offset="0.1776" style="stop-color:#FDCB04"/>
		<stop  offset="1" style="stop-color:#F7F1DB"/>
	</linearGradient>
	<path class="st8" d="M485.97,447.63c-7.26-16.67-19.37-39.46-39.33-62.71c-18.29-21.29-37.11-35.89-51.58-45.44
		c9.53,3.86,22.86,7.88,39.05,8.68c6.77,0.33,12.96,0.05,18.44-0.54c6.72,13.87,13.54,29.95,19.65,48.11
		C478.54,414.56,482.92,432.07,485.97,447.63z"/>
	<linearGradient id="SVGID_6_" gradientUnits="userSpaceOnUse" x1="509.1158" y1="392.6648" x2="625.5464" y2="392.6648">
		<stop  offset="0" style="stop-color:#FDCB04"/>
		<stop  offset="1" style="stop-color:#F7F1DB"/>
	</linearGradient>
	<path class="st9" d="M509.12,446.18c15.13-15.25,31.03-30.71,47.73-46.28c23.29-21.73,46.26-41.95,68.7-60.75
		c-10.92,4.14-23.92,8.24-38.78,11.4c-13.97,2.97-26.76,4.51-37.88,5.23C535.63,385.92,522.37,416.05,509.12,446.18z"/>
	<linearGradient id="SVGID_7_" gradientUnits="userSpaceOnUse" x1="476.9634" y1="407.0096" x2="527.9468" y2="407.0096">
		<stop  offset="0.2345" style="stop-color:#FDCB04"/>
		<stop  offset="0.5151" style="stop-color:#F7F1DB"/>
		<stop  offset="1" style="stop-color:#FDCB04"/>
	</linearGradient>
	<path class="st10" d="M476.96,350.87c6.82,1.16,15.49,2.04,25.49,1.63c10.11-0.42,18.75-2.04,25.49-3.8
		c-10.31,38.87-20.61,77.74-30.92,116.61C490.34,427.17,483.65,389.02,476.96,350.87z"/>
</g>
</svg>
