<?xml version="1.0" encoding="utf-8"?>
<!-- Generator: Adobe Illustrator 26.0.0, SVG Export Plug-In . SVG Version: 6.00 Build 0)  -->
<svg version="1.1" id="Layer_1" xmlns="http://www.w3.org/2000/svg" xmlns:xlink="http://www.w3.org/1999/xlink" x="0px" y="0px"
	 viewBox="0 0 457.69 300" style="enable-background:new 0 0 457.69 300;" xml:space="preserve">
<style type="text/css">
	.st0{fill:none;stroke:#1E2020;stroke-width:3;stroke-miterlimit:10;}
	.st1{fill:#806817;}
	.st2{fill:#655215;}
	.st3{fill:#322B16;}
	.st4{fill:#18160E;}
	.st5{fill:#FECC08;}
	.st6{fill:#FFF5CC;}
	.st7{fill:#987B15;}
	.st8{fill:#4B3F17;}
	.st9{fill:#CBA305;}
	.st10{fill:#37160E;}
	.st11{fill:#FECB05;}
	.st12{fill:#C16F52;}
	.st13{fill:#020203;}
	.st14{fill:#FED636;}
	.st15{fill:#FFFBE8;}
	.st16{fill:#EEB602;}
	.st17{fill:#0C0B07;}
	.st18{fill:#B28E0E;}
	.st19{fill:#D8CEB2;}
	.st20{fill:#FFFFFF;}
	.st21{fill:#FFEA9B;}
</style>
<g>
	<g>
		<path class="st0" d="M180.34,69.47"/>
	</g>
	<polygon class="st1" points="279.11,201.35 177.16,201.35 144.42,250.35 144.42,276.08 311.86,276.08 311.86,250.35 	"/>
	<g>
		<path class="st2" d="M302.7,255.97H153.64l-9.15-1.69l-0.05-3.94l31.41-48.45c1.27-1.98,3.44-3.17,5.81-3.17h93.03
			c2.36,0,4.53,1.19,5.81,3.17l31.36,48.42v4L302.7,255.97z M154.12,250.73h148.11l3.26-0.59l-29.4-45.41
			c-0.31-0.48-0.83-0.76-1.4-0.76h-93.03c-0.57,0-1.09,0.29-1.4,0.76l-29.43,45.39L154.12,250.73z"/>
	</g>
	<g>
		<g>
			<g>
				<ellipse class="st3" cx="182.26" cy="236.6" rx="7.93" ry="4.98"/>
			</g>
		</g>
	</g>
	<g>
		<g>
			<g>
				<ellipse class="st3" cx="208.32" cy="236.6" rx="7.93" ry="4.98"/>
			</g>
		</g>
	</g>
	<g>
		<path class="st2" d="M188.68,231.61c-0.03-0.38-0.23-0.75-0.59-1.11c-1.12-1.11-3.68-1.93-5.95-1.9c-2.79,0.03-6.14,1.37-6.3,3.01
			c0,0-0.01,0-0.01,0c0,1.63,0,3.25,0,4.88c-0.01,0.37,0.06,0.65,0.12,0.82c0.7,1.98,4.22,2.59,6.3,2.59h0
			c3.13,0.12,5.65-0.78,6.28-2.44c0.1-0.27,0.17-0.59,0.15-0.98C188.69,234.85,188.69,233.23,188.68,231.61L188.68,231.61z
			 M182.14,229.53c0.03,0,0.06,0,0.09,0c1.97,0,4.28,0.72,5.2,1.63c0.16,0.16,0.26,0.31,0.3,0.45h-10.96
			C177,230.72,179.59,229.56,182.14,229.53z"/>
	</g>
	<g>
		<g>
			<g>
				<path class="st2" d="M181.83,205.94c0-0.01,17.72-0.02,92.56,0c3.97,6.11,7.95,12.22,11.92,18.32
					c-5.69-3.9-14.52-9.1-26.19-12.63c-9.03-2.73-16.35-3.42-35.53-4.29C201.55,206.31,181.83,205.95,181.83,205.94z"/>
			</g>
		</g>
	</g>
	<g>
		<g>
			<g>
				<path class="st2" d="M274.12,205.94c0-0.01-17.72-0.02-92.56,0c-3.97,6.11-7.95,12.22-11.92,18.32
					c5.69-3.9,14.52-9.1,26.19-12.63c9.03-2.73,16.35-3.42,35.53-4.29C254.4,206.31,274.12,205.95,274.12,205.94z"/>
			</g>
		</g>
	</g>
	<g>
		<g>
			<g>
				<path class="st4" d="M337.33,131.14h-4.61c0-57.67-46.91-104.58-104.58-104.58S123.56,73.47,123.56,131.14h-4.61
					c0-60.21,48.98-109.19,109.19-109.19S337.33,70.93,337.33,131.14z"/>
			</g>
		</g>
	</g>
	<g>
		<g>
			<g>
				<path class="st4" d="M197.62,199.52l-28.09-13.57l1.74-2.25c0.42-0.54,4.03-5.46,2.09-11.64c-1.94-6.18-7.71-8.15-8.36-8.36
					l-2-0.63l3.61-16.9l4.51,0.96l-2.77,12.97c2.74,1.32,7.48,4.41,9.41,10.58c1.8,5.74,0.09,10.67-1.36,13.47l23.23,11.22
					L197.62,199.52z"/>
			</g>
		</g>
	</g>
	<g>
		<g>
			<g>
				<path class="st4" d="M258.66,199.23l-2-4.15l23.23-11.22c-1.45-2.79-3.17-7.73-1.36-13.47c1.94-6.17,6.67-9.26,9.41-10.57
					l-2.77-12.97l4.51-0.96l3.61,16.9l-2,0.63c-0.26,0.08-6.39,2.07-8.36,8.36c-1.98,6.3,1.92,11.43,2.09,11.64l1.75,2.25
					L258.66,199.23z"/>
			</g>
		</g>
	</g>
	<g>
		<g>
			<g>
				<path class="st0" d="M257.66,186.39"/>
			</g>
		</g>
	</g>
	<g>
		<g>
			<g>
				<path class="st4" d="M290.51,113.35h-4.61c0-31.72-25.81-57.53-57.53-57.53s-57.53,25.81-57.53,57.53h-4.61
					c0-34.27,27.88-62.14,62.14-62.14C262.64,51.21,290.51,79.09,290.51,113.35z"/>
			</g>
		</g>
	</g>
	<g>
		<g>
			<g>
				<circle class="st5" cx="228.14" cy="127.19" r="48.1"/>
			</g>
		</g>
	</g>
	<g>
		<g>
			<g>
				<circle class="st6" cx="228.14" cy="127.19" r="32.77"/>
			</g>
		</g>
	</g>
	<g>
		<g>
			<path class="st7" d="M174.37,146.65h-11.68c-3.12,0-5.66-2.55-5.66-5.66v-21.97c0-3.12,2.55-5.66,5.66-5.66h11.68
				c3.12,0,5.66,2.55,5.66,5.66v21.97C180.04,144.1,177.49,146.65,174.37,146.65z"/>
		</g>
	</g>
	<g>
		<g>
			<g>
				<path class="st4" d="M174.37,148.96h-11.68c-4.39,0-7.97-3.58-7.97-7.97v-21.97c0-4.39,3.57-7.97,7.97-7.97h11.68
					c4.39,0,7.97,3.57,7.97,7.97v21.97C182.34,145.38,178.77,148.96,174.37,148.96z M162.69,115.66c-1.85,0-3.36,1.51-3.36,3.36
					v21.97c0,1.85,1.51,3.36,3.36,3.36h11.68c1.85,0,3.36-1.51,3.36-3.36v-21.97c0-1.85-1.51-3.36-3.36-3.36H162.69z"/>
			</g>
		</g>
	</g>
	<g>
		<g>
			<g>
				<path class="st7" d="M294.05,146.65h-11.68c-3.12,0-5.66-2.55-5.66-5.66v-21.97c0-3.12,2.55-5.66,5.66-5.66h11.68
					c3.12,0,5.66,2.55,5.66,5.66v21.97C299.71,144.1,297.16,146.65,294.05,146.65z"/>
			</g>
		</g>
	</g>
	<g>
		<g>
			<g>
				<path class="st4" d="M294.05,148.96h-11.68c-4.39,0-7.97-3.58-7.97-7.97v-21.97c0-4.39,3.57-7.97,7.97-7.97h11.68
					c4.39,0,7.97,3.57,7.97,7.97v21.97C302.02,145.38,298.44,148.96,294.05,148.96z M282.37,115.66c-1.85,0-3.36,1.51-3.36,3.36
					v21.97c0,1.85,1.51,3.36,3.36,3.36h11.68c1.85,0,3.36-1.51,3.36-3.36v-21.97c0-1.85-1.51-3.36-3.36-3.36H282.37z"/>
			</g>
		</g>
	</g>
	<g>
		<g>
			<g>
				<g>
					<path class="st7" d="M118.92,122.52v14.96h-4.53c-1.25,0-2.27-1-2.27-2.23v-10.51c0-1.23,1.02-2.23,2.27-2.23H118.92z"/>
				</g>
			</g>
		</g>
	</g>
	<g>
		<g>
			<g>
				<g>
					<path class="st3" d="M119.51,121.95v16.11h-5.11c-1.57,0-2.85-1.26-2.85-2.8v-10.51c0-1.54,1.28-2.8,2.85-2.8H119.51z
						 M118.34,136.91v-13.81h-3.94c-0.93,0-1.68,0.74-1.68,1.65v10.51c0,0.91,0.75,1.65,1.68,1.65H118.34z"/>
				</g>
			</g>
		</g>
	</g>
	<g>
		<g>
			<g>
				<g>
					<path class="st4" d="M118.34,130v6.91h-3.75c-1.04,0-1.88-0.46-1.88-1.03v-4.85c0-0.35,0-0.69,0-1.04
						c0.63,0,1.25,0.01,1.88,0.01H118.34z"/>
				</g>
			</g>
		</g>
	</g>
	<g>
		<g>
			<g>
				<g>
					<path class="st8" d="M113.22,128.26c0.13,0.58,0.27,1.16,0.4,1.74c-0.13,0.58-0.27,1.16-0.4,1.74c0,0.08-0.11,0.15-0.25,0.15
						c-0.14,0-0.25-0.07-0.25-0.15v-3.47c0-0.08,0.11-0.15,0.25-0.15C113.11,128.11,113.22,128.18,113.22,128.26z"/>
				</g>
			</g>
		</g>
	</g>
	<g>
		<g>
			<g>
				<g>
					<path class="st8" d="M118.34,130c-1.57,0-3.14,0-4.72,0c1.57,2.3,3.15,4.61,4.72,6.91C118.34,134.61,118.34,132.3,118.34,130z"
						/>
				</g>
			</g>
		</g>
	</g>
	<g>
		<g>
			<g>
				<g>
					<path class="st9" d="M117.84,124.12v3.1c0,0.06-0.05,0.12-0.12,0.12h-0.52c-0.06,0-0.12-0.05-0.12-0.12v-3.1
						c0-0.06,0.05-0.12,0.12-0.12h0.52C117.79,124.01,117.84,124.06,117.84,124.12z"/>
				</g>
			</g>
		</g>
	</g>
	<g>
		<g>
			<g>
				<g>
					<path class="st3" d="M119.53,136.95c0.21-0.5,0.58-1.22,1.23-1.94c0.58-0.64,1.17-1.06,1.61-1.33
						c0.01-2.48,0.02-4.96,0.03-7.44c-0.42-0.21-1.02-0.57-1.61-1.17c-0.73-0.75-1.1-1.52-1.28-2.01
						C119.52,127.69,119.52,132.32,119.53,136.95z"/>
				</g>
			</g>
		</g>
	</g>
	<g>
		<g>
			<g>
				<g>
					<path class="st10" d="M119.87,123.06c0,4.63,0,9.26,0,13.89c-0.12,0-0.24,0-0.36,0c0-4.63,0-9.26,0-13.89
						C119.63,123.06,119.75,123.06,119.87,123.06z"/>
				</g>
			</g>
		</g>
	</g>
	<g>
		<g>
			<g>
				<g>
					<path class="st4" d="M119.56,123.18v13.64c0,0.07,0.06,0.12,0.12,0.12h0.24c0.07,0,0.12-0.06,0.12-0.12v-13.64
						c0-0.07-0.06-0.12-0.12-0.12h-0.24C119.61,123.06,119.56,123.11,119.56,123.18z"/>
				</g>
			</g>
		</g>
	</g>
	<g>
		<g>
			<g>
				<path class="st7" d="M148.32,138.71h-16.48c-4.79,0-8.71-3.92-8.71-8.71v0c0-4.79,3.92-8.71,8.71-8.71h16.48
					c4.79,0,8.71,3.92,8.71,8.71v0C157.03,134.79,153.11,138.71,148.32,138.71z"/>
			</g>
		</g>
	</g>
	<g>
		<g>
			<g>
				<path class="st4" d="M148.32,141.01h-16.48c-6.07,0-11.01-4.94-11.01-11.01c0-6.07,4.94-11.01,11.01-11.01h16.48
					c6.07,0,11.01,4.94,11.01,11.01C159.33,136.07,154.39,141.01,148.32,141.01z M131.84,123.6c-3.53,0-6.4,2.87-6.4,6.4
					c0,3.53,2.87,6.4,6.4,6.4h16.48c3.53,0,6.4-2.87,6.4-6.4c0-3.53-2.87-6.4-6.4-6.4H131.84z"/>
			</g>
		</g>
	</g>
	<g>
		<g>
			<g>
				<g>
					<path class="st7" d="M338.77,122.49v14.96h4.53c1.25,0,2.27-1,2.27-2.23v-10.51c0-1.23-1.02-2.23-2.27-2.23H338.77z"/>
				</g>
			</g>
		</g>
	</g>
	<g>
		<g>
			<g>
				<g>
					<path class="st3" d="M343.29,121.92c1.57,0,2.85,1.26,2.85,2.8v10.51c0,1.54-1.28,2.8-2.85,2.8h-5.11v-16.11H343.29z
						 M343.29,136.88c0.93,0,1.68-0.74,1.68-1.65v-10.51c0-0.91-0.75-1.65-1.68-1.65h-3.94v13.81H343.29z"/>
				</g>
			</g>
		</g>
	</g>
	<g>
		<g>
			<g>
				<g>
					<path class="st4" d="M339.35,129.97v6.91h3.75c1.04,0,1.88-0.46,1.88-1.03V131c0-0.35,0-0.69,0-1.04
						c-0.63,0-1.25,0.01-1.88,0.01H339.35z"/>
				</g>
			</g>
		</g>
	</g>
	<g>
		<g>
			<g>
				<g>
					<path class="st8" d="M344.47,128.24c-0.13,0.58-0.27,1.16-0.4,1.74c0.13,0.58,0.27,1.16,0.4,1.74c0,0.08,0.11,0.15,0.25,0.15
						c0.14,0,0.25-0.07,0.25-0.15v-3.47c0-0.08-0.11-0.15-0.25-0.15C344.58,128.08,344.47,128.15,344.47,128.24z"/>
				</g>
			</g>
		</g>
	</g>
	<g>
		<g>
			<g>
				<g>
					<path class="st8" d="M339.35,129.97c1.57,0,3.14,0,4.72,0c-1.57,2.3-3.15,4.61-4.72,6.91
						C339.35,134.58,339.35,132.28,339.35,129.97z"/>
				</g>
			</g>
		</g>
	</g>
	<g>
		<g>
			<g>
				<g>
					<path class="st11" d="M339.9,123.94v3.1c0,0.06,0.05,0.12,0.12,0.12h0.37c0.06,0,0.12-0.05,0.12-0.12v-3.1
						c0-0.06-0.05-0.12-0.12-0.12h-0.37C339.95,123.82,339.9,123.87,339.9,123.94z"/>
				</g>
			</g>
		</g>
	</g>
	<g>
		<g>
			<g>
				<g>
					<path class="st3" d="M338.16,136.92c-0.21-0.5-0.58-1.22-1.23-1.94c-0.58-0.64-1.17-1.06-1.61-1.33
						c-0.01-2.48-0.02-4.96-0.03-7.44c0.42-0.21,1.02-0.57,1.61-1.17c0.73-0.75,1.1-1.52,1.28-2.01
						C338.18,127.66,338.17,132.29,338.16,136.92z"/>
				</g>
			</g>
		</g>
	</g>
	<g>
		<g>
			<g>
				<g>
					<path class="st10" d="M337.82,123.03c0,4.63,0,9.26,0,13.89c0.12,0,0.24,0,0.36,0c0-4.63,0-9.26,0-13.89
						C338.06,123.03,337.94,123.03,337.82,123.03z"/>
				</g>
			</g>
		</g>
	</g>
	<g>
		<g>
			<g>
				<g>
					<path class="st4" d="M338.13,123.15v13.64c0,0.07-0.06,0.12-0.12,0.12h-0.24c-0.07,0-0.12-0.06-0.12-0.12v-13.64
						c0-0.07,0.06-0.12,0.12-0.12h0.24C338.08,123.03,338.13,123.09,338.13,123.15z"/>
				</g>
			</g>
		</g>
	</g>
	<g>
		<g>
			<g>
				<path class="st7" d="M324.9,138.71h-16.48c-4.79,0-8.71-3.92-8.71-8.71v0c0-4.79,3.92-8.71,8.71-8.71h16.48
					c4.79,0,8.71,3.92,8.71,8.71v0C333.61,134.79,329.69,138.71,324.9,138.71z"/>
			</g>
		</g>
	</g>
	<g>
		<g>
			<g>
				<path class="st4" d="M324.9,141.01h-16.48c-6.07,0-11.01-4.94-11.01-11.01c0-6.07,4.94-11.01,11.01-11.01h16.48
					c6.07,0,11.01,4.94,11.01,11.01C335.92,136.07,330.98,141.01,324.9,141.01z M308.42,123.6c-3.53,0-6.4,2.87-6.4,6.4
					c0,3.53,2.87,6.4,6.4,6.4h16.48c3.53,0,6.4-2.87,6.4-6.4c0-3.53-2.87-6.4-6.4-6.4H308.42z"/>
			</g>
		</g>
	</g>
	<g>
		<g>
			<g>
				<g>
					<path class="st9" d="M148.26,126.59v6.79c0,0.56,0.45,1.01,1.01,1.01h1.08c0.56,0,1.01-0.45,1.01-1.01v-6.79
						c0-0.56-0.45-1.01-1.01-1.01h-1.08C148.72,125.58,148.26,126.03,148.26,126.59z"/>
				</g>
			</g>
		</g>
	</g>
	<g>
		<g>
			<g>
				<g>
					<path class="st9" d="M170.81,119.62v20.71c0,0.56,0.45,1.01,1.01,1.01h2.08c0.56,0,1.01-0.45,1.01-1.01v-20.71
						c0-0.56-0.45-1.01-1.01-1.01h-2.08C171.26,118.61,170.81,119.07,170.81,119.62z"/>
				</g>
			</g>
		</g>
	</g>
	<g>
		<g>
			<g>
				<g>
					<path class="st9" d="M305.84,126.61v6.79c0,0.56,0.45,1.01,1.01,1.01h1.08c0.56,0,1.01-0.45,1.01-1.01v-6.79
						c0-0.56-0.45-1.01-1.01-1.01h-1.08C306.3,125.6,305.84,126.05,305.84,126.61z"/>
				</g>
			</g>
		</g>
	</g>
	<g>
		<g>
			<g>
				<path class="st12" d="M239.55,201.42c-6.2,1.35-11.56,1.3-15.35,0.97c2.63-0.26,6.57-0.84,11.24-2.29c1.36-0.42,1.99-0.67,3-1
					c3-0.98,7.46-2.02,13.55-2.13C248.94,198.54,244.74,200.3,239.55,201.42z"/>
			</g>
		</g>
	</g>
	<g>
		<g>
			<g>
				<path class="st7" d="M247.67,56.13c-3.22-1.38-6.01-1.55-8.72-1.76c-2.7-0.2-5.02-0.07-6.77,0.12
					c2.63,0.23,6.57,0.73,11.24,1.98c0,0,0.36,0.1,0.91,0.25c0,0,1.04,0.29,2.08,0.61c1.01,0.31,3.59,1.18,7.01,2.5
					C251.23,57.86,249.13,56.75,247.67,56.13z"/>
			</g>
		</g>
	</g>
	<g>
		<g>
			<g>
				<path class="st7" d="M258.47,27.94c-4.04-1.51-7.36-1.82-9.29-1.99c-3.23-0.28-5.96-0.11-7.97,0.12
					c1.83,0.12,3.74,0.32,5.72,0.61c7.65,1.11,14.21,3.28,19.53,5.6C263.41,30.02,260.53,28.7,258.47,27.94z"/>
			</g>
		</g>
	</g>
	<g>
		<g>
			<g>
				<path class="st6" d="M249.88,57.79c-1.12-0.5-2.26-1.02-3.71-1.2c-0.31-0.04-0.94-0.1-1.44-0.15c-0.89-0.09-1.63-0.15-2.11-0.19
					c1.64,0.43,3.36,0.93,5.14,1.51c2.02,0.66,3.9,1.36,5.66,2.06C252.07,58.87,250.83,58.22,249.88,57.79z"/>
			</g>
		</g>
	</g>
	<g>
		<g>
			<g>
				<path class="st6" d="M262.19,29.88c-1.29-0.58-2.37-1.05-3.71-1.2c-0.22-0.02-0.63-0.06-1.44-0.15c-0.9-0.1-1.64-0.19-2.12-0.25
					c1.73,0.45,3.57,0.99,5.49,1.65c2.19,0.75,4.21,1.54,6.05,2.35C264.8,31.14,263.31,30.38,262.19,29.88z"/>
			</g>
		</g>
	</g>
	<g>
		<g>
			<g>
				<path class="st13" d="M188.7,29.32c-5.42,2.95-11.01,6.16-16.74,9.65c-5.75,3.5-11.18,7.01-16.3,10.48
					c3.59-3.16,7.89-6.54,12.95-9.82C175.91,34.89,182.83,31.61,188.7,29.32z"/>
			</g>
		</g>
	</g>
	<g>
		<g>
			<g>
				<path class="st13" d="M210.26,54.01c-4.3,2.04-9,4.56-13.92,7.68c-5.84,3.7-10.82,7.51-14.97,11.05
					c2.6-3.06,6.3-6.8,11.31-10.31C199.33,57.77,205.72,55.33,210.26,54.01z"/>
			</g>
		</g>
	</g>
	<g>
		<g>
			<g>
				<g>
					<path class="st14" d="M173.49,121.15v13.91c0,0.51,0.42,0.93,0.93,0.93h0.99c0.51,0,0.93-0.42,0.93-0.93v-13.91
						c0-0.51-0.42-0.93-0.93-0.93h-0.99C173.91,120.22,173.49,120.64,173.49,121.15z"/>
				</g>
			</g>
		</g>
	</g>
	<g>
		<g>
			<g>
				<path class="st8" d="M125.54,128.9c-0.09,0.45-0.17,1.1-0.08,1.88c0.26,2.21,1.78,4.28,3.71,5.08c0.84,0.34,1.77,0.46,2.14,0.5
					c0.82,0.1,1.51,0.08,2.02,0.04c-1.08-0.34-3.19-1.18-5.11-3.17C126.67,131.6,125.91,129.91,125.54,128.9z"/>
			</g>
		</g>
	</g>
	<g>
		<g>
			<g>
				<path class="st8" d="M331.22,128.9c0.09,0.45,0.17,1.1,0.08,1.88c-0.26,2.21-1.78,4.28-3.71,5.08c-0.84,0.34-1.77,0.46-2.14,0.5
					c-0.82,0.1-1.51,0.08-2.02,0.04c1.08-0.34,3.19-1.18,5.11-3.17C330.09,131.6,330.85,129.91,331.22,128.9z"/>
			</g>
		</g>
	</g>
	<g>
		<g>
			<g>
				<path class="st8" d="M159.34,137.04c0,1.4-0.01,2.8-0.01,4.2c0.01,0.29,0.08,1.17,0.75,1.98c0.62,0.76,1.39,1.02,1.67,1.1
					c1.66,0.01,3.33,0.02,4.99,0.03c-0.94-0.26-2.98-0.96-4.82-2.85C160.27,139.8,159.61,137.97,159.34,137.04z"/>
			</g>
		</g>
	</g>
	<g>
		<path class="st3" d="M311.86,254.23c-27.9,4.99-55.8,9.98-83.7,14.97c-27.91-4.99-55.82-9.98-83.73-14.98
			c0.03,7.38,0.07,14.76,0.1,22.14c55.75,0,111.51,0,167.26,0C311.81,268.98,311.83,261.6,311.86,254.23z"/>
	</g>
	<g>
		<path class="st15" d="M206.76,86.31c-0.45-0.57-5.75,2.22-10.27,6.47c-6.06,5.7-9.41,12.83-8.75,13.32
			c0.33,0.24,1.55-1.27,10.27-10.27C205.3,88.3,207.05,86.67,206.76,86.31z"/>
	</g>
	<g>
		<path class="st16" d="M267.26,149.09c0.54,0.47-4.18,9.24-13.13,15.6c-10.29,7.31-21.83,8.33-22.07,7.61
			c-0.22-0.67,9.2-2.56,20.55-10.46C262.17,155.18,266.77,148.67,267.26,149.09z"/>
	</g>
	<g>
		<g>
			<g>
				<path class="st17" d="M228.84,162.25c-0.08,0-0.15,0-0.23-0.01c-1.31-0.13-8.03-1.06-10.96-6.47
					c-1.55-2.87-1.71-6.54-0.49-10.11c-3.33-4.18-4.78-9.42-3.86-14.11c0.66-3.36,2.46-6.43,4.94-8.76
					c-1.62-4.53-1.48-9.44,0.45-13.12c0.21-0.4,1.58-2.88,4.23-4.77c0.2-3.4,1.24-7.34,3.11-11.44c0.53-1.16,1.9-1.67,3.06-1.14
					c1.16,0.53,1.67,1.9,1.14,3.06c-1.27,2.78-2.04,5.31-2.44,7.49c0.08-0.01,0.17-0.03,0.25-0.04c4.18-0.58,8.3,1.15,10.37,3.03
					c1.63,1.48,1.93,2.89,1.89,3.82c-0.07,1.7-1.38,3.3-3.68,4.49c-2.99,1.55-7.3,2.27-10.21,0.41c-1.33-0.86-2.29-2.2-2.87-3.92
					c-0.49,0.63-0.75,1.12-0.77,1.17c-1.16,2.21-1.34,5.24-0.58,8.18c1.64-0.83,3.42-1.38,5.23-1.56c3.88-0.39,8.45,0.86,10.88,2.97
					c1.48,1.28,1.83,2.59,1.87,3.46c0.07,1.57-0.78,3.13-2.46,4.51c-2.37,1.94-6.69,3.6-10.61,2.65c-2.54-0.62-4.86-2.35-6.65-4.88
					c-1.31,1.53-2.26,3.36-2.64,5.31c-0.53,2.73,0.13,5.88,1.76,8.63c2.07-2.78,4.86-4.67,7.71-5.12
					c4.39-0.71,10.28,1.87,10.98,6.13c0.26,1.62-0.35,3.4-1.73,5.03c-1.82,2.15-5.31,4.33-8.99,4.34c-0.01,0-0.02,0-0.03,0
					c-2.18,0-4.42-0.76-6.5-2.17c-0.2,1.59,0.03,3.08,0.68,4.29c1.86,3.44,6.8,4.02,7.36,4.08c1.27,0.12,2.19,1.25,2.07,2.52
					C231.01,161.36,230.01,162.25,228.84,162.25z M222.66,144.75c1.59,1.34,3.31,2.1,4.86,2.1c0,0,0.01,0,0.02,0
					c2.06-0.01,4.29-1.33,5.43-2.64c0.68-0.78,0.77-1.28,0.76-1.38c-0.16-0.99-3.02-2.76-5.7-2.32
					C226.1,140.81,224.08,142.44,222.66,144.75z M224.07,124.22c1.17,1.75,2.64,2.94,4.15,3.31c3.11,0.76,6.66-1.39,7.3-2.46
					c-0.73-0.89-4.18-2.4-7.62-2.06C226.57,123.15,225.27,123.58,224.07,124.22z M235.62,125.23L235.62,125.23L235.62,125.23z
					 M227.56,107.65c0.19,1.55,0.69,2.6,1.35,3.03c0.68,0.44,2.02,0.5,3.49,0.15c1.52-0.36,2.6-1,3.1-1.42
					c-0.87-0.92-3.77-2.46-6.81-2.03C228.3,107.44,227.92,107.53,227.56,107.65z M235.73,109.74L235.73,109.74L235.73,109.74z"/>
			</g>
		</g>
	</g>
	<g>
		<g>
			<g>
				<path class="st18" d="M233.97,103.77c-0.82-0.28-2.03-0.6-3.51-0.66c-0.32-0.01-1.23-0.03-2.28,0.13
					c-2.51,0.39-4.44,1.62-5.53,2.45c1.81-0.88,3.37-1.28,4.47-1.47c1.31-0.23,2.57-0.29,4.71-0.38
					C232.72,103.79,233.45,103.78,233.97,103.77z"/>
			</g>
		</g>
	</g>
	<g>
		<g>
			<g>
				<path class="st1" d="M231.98,119.37c-1.1-0.27-1.98-0.26-3-0.25c-0.82,0.01-1.78,0.07-2.85,0.25c2.02,0.27,3.47,0.35,4.44,0.38
					c0.28,0.01,0.77,0.02,1.44,0.11c1.12,0.15,2.01,0.42,2.6,0.63C233.59,119.86,232.67,119.54,231.98,119.37z"/>
			</g>
		</g>
	</g>
	<g>
		<path class="st8" d="M223.74,110.43c0.09-0.15,0.22-0.34,0.4-0.53c0.24-0.25,0.47-0.41,0.66-0.52c0.02,0.61,0.13,1.86,0.88,3.18
			c0.81,1.43,1.92,2.18,2.45,2.49c-0.56-0.17-1.38-0.5-2.2-1.16C224.41,112.66,223.9,111.06,223.74,110.43z"/>
	</g>
	<g>
		<path class="st8" d="M226.48,108.26c0.05-0.07,0.12-0.15,0.21-0.23c0.25-0.21,0.52-0.27,0.66-0.29c0.07,0.47,0.2,0.99,0.4,1.54
			c0.06,0.15,0.11,0.29,0.17,0.42c-0.06-0.08-0.16-0.2-0.28-0.35c-0.34-0.43-0.41-0.59-0.61-0.77
			C226.92,108.49,226.75,108.36,226.48,108.26z"/>
	</g>
	<g>
		<path class="st8" d="M235.51,109.67c0.05,0.04,0.2,0.15,0.25,0.36c0.09,0.33-0.13,0.59-0.15,0.61c-0.23-0.02-0.42-0.05-0.55-0.06
			c-0.27-0.04-0.37-0.06-0.53-0.06c-0.22-0.01-0.4,0.01-0.53,0.04c0.23-0.11,0.47-0.23,0.72-0.38
			C235.02,110.01,235.28,109.83,235.51,109.67z"/>
	</g>
	<g>
		<path class="st7" d="M237.83,106.77c0.78,0.47,1.33,1.43,1.23,2.41c-0.06,0.51-0.28,0.91-0.47,1.16c-0.02-0.5-0.11-1.4-0.61-2.37
			c-0.38-0.73-0.85-1.24-1.18-1.54C237.05,106.46,237.43,106.53,237.83,106.77z"/>
	</g>
	<g>
		<path class="st8" d="M227.54,102.73c-0.2,0.04-0.4,0.09-0.61,0.15c-0.17,0.05-0.26,0.07-0.32,0.09c-0.12,0.05-0.18,0.09-0.2,0.07
			c-0.04-0.04,0.12-0.27,0.18-0.34c0.24-0.34,0.42-0.45,0.65-0.75c0.51-0.67,0.86-1.37,1.01-1.71
			C228.01,101.07,227.77,101.9,227.54,102.73z"/>
	</g>
	<g>
		<path class="st8" d="M223.44,101.85c-0.04,0.28-0.07,0.56-0.11,0.85c-0.08,0.64-0.15,1.28-0.21,1.9c0.18-0.14,0.4-0.3,0.66-0.44
			c0.23-0.13,0.46-0.24,0.66-0.32c-0.17-0.11-0.44-0.3-0.66-0.63C223.41,102.63,223.42,102.05,223.44,101.85z"/>
	</g>
	<g>
		<path class="st1" d="M218.24,120.57c0.44,1.88,1.39,4.64,3.59,7.23c0.62,0.73,1.25,1.34,1.86,1.86c-0.92-1.3-1.86-2.73-2.79-4.27
			C219.89,123.72,219.01,122.11,218.24,120.57z"/>
	</g>
	<g>
		<path class="st8" d="M218.65,124.58c0.06,0.14,0.12,0.28,0.18,0.43c0.33,0.73,0.73,1.34,1.12,1.85c-0.16,0.19-0.32,0.41-0.49,0.65
			c-0.23,0.35-0.41,0.68-0.55,0.97C218.83,127.18,218.74,125.88,218.65,124.58z"/>
	</g>
	<g>
		<path class="st8" d="M223.18,122.28c-0.02,0.02,0,0.08,0.01,0.11c0.26,0.7,0.36,0.86,0.36,0.87c0.12,0.19,0.27,0.42,0.48,0.68
			c0.8-0.38,1.41-0.63,1.66-0.71c0.19-0.06,0.31-0.09,0.31-0.09c0.26-0.07,0.41-0.08,0.41-0.1c0-0.02-0.29-0.01-0.46-0.02
			c-0.09,0-0.72-0.01-1.4-0.2c-0.11-0.03-0.95-0.27-1.22-0.46C223.31,122.33,223.21,122.26,223.18,122.28z"/>
	</g>
	<g>
		<path class="st1" d="M235.3,123.98c0.03,0.03,0.06,0.07,0.14,0.45c0.04,0.19,0.07,0.36,0.1,0.48c-0.19-0.17-0.35-0.29-0.48-0.37
			c-0.07-0.05-0.16-0.11-0.29-0.18c-0.28-0.16-0.37-0.16-0.38-0.21C234.39,124.01,235.05,123.75,235.3,123.98z"/>
	</g>
	<g>
		<path class="st9" d="M237.2,126.77c0.04,0.04-1.55,2.16-4.06,2.73c-1.28,0.29-2.36,0.07-2.37-0.02c-0.01-0.14,2.17,0.02,4.42-1.18
			C236.54,127.56,237.18,126.74,237.2,126.77z"/>
	</g>
	<g>
		<path class="st8" d="M216.81,142.97c0.28,0.21,0.54,0.42,0.78,0.63c-0.11,0.11-0.25,0.29-0.37,0.54c-0.14,0.31-0.16,0.6-0.16,0.76
			c-0.31-0.45-0.63-0.93-0.95-1.46c-0.32-0.53-0.61-1.04-0.86-1.54C215.75,142.21,216.27,142.56,216.81,142.97z"/>
	</g>
	<g>
		<path class="st8" d="M222.49,145.09c-0.34,0.46-0.82,1.21-1.08,2.25c-0.16,0.64-0.2,1.21-0.19,1.65c0.21,0.18,0.45,0.36,0.73,0.54
			c0.5,0.32,0.97,0.53,1.36,0.67c-0.3-0.47-0.75-1.32-0.94-2.48C222.19,146.57,222.35,145.63,222.49,145.09z"/>
	</g>
	<g>
		<path class="st1" d="M219.76,142.08c-0.49,0.49-1.08,1.18-1.59,2.12c-0.91,1.69-1.06,3.29-1.08,4.19
			c0.75-2.17,1.24-3.25,1.55-3.84c0.08-0.14,0.35-0.65,0.67-1.36C219.52,142.72,219.67,142.33,219.76,142.08z"/>
	</g>
	<g>
		<path class="st8" d="M233.87,142.46c0.14-0.05,0.18-0.51,0-0.82c-0.23-0.4-0.84-0.57-1.52-0.44c0.2,0.11,0.49,0.29,0.79,0.57
			C233.59,142.18,233.74,142.51,233.87,142.46z"/>
	</g>
	<g>
		<path class="st9" d="M228.23,137.45c-2.55,0.24-4.41,1.67-4.38,1.74c0.03,0.06,1.46-0.89,3.55-1.2c3.75-0.57,6.71,1.32,6.75,1.2
			C234.2,139.08,231.6,137.13,228.23,137.45z"/>
	</g>
	<g>
		<path class="st8" d="M228.61,161.83c0.02-0.1-1.84-0.43-4.57-1.59c-2.49-1.06-3.91-2.05-3.96-1.97c-0.05,0.09,1.53,1.41,3.77,2.38
			C226.32,161.73,228.58,161.94,228.61,161.83z"/>
	</g>
	<g>
		<path class="st9" d="M228.48,158.16c0.04-0.11,1.01-0.1,1.59,0.51c0.43,0.46,0.52,1.12,0.41,1.17c-0.1,0.05-0.31-0.44-0.95-0.98
			C228.92,158.34,228.45,158.24,228.48,158.16z"/>
	</g>
	<g>
		<path class="st19" d="M255.44,142.47c0.18,0.13-0.26,1.01-0.42,1.31c-1.98,3.95-6.98,7.77-6.98,7.77
			c-1.16,0.89-7.17,5.43-11.77,6.05c-0.41,0.05-1.69,0.23-1.76,0c-0.07-0.26,1.46-0.9,1.87-1.08c4.08-1.74,8.31-5.17,9.63-6.24
			c0.78-0.63,6.25-5.11,8.43-7.16C254.64,142.95,255.27,142.35,255.44,142.47z"/>
	</g>
	<g>
		<path class="st19" d="M220.02,98.17"/>
	</g>
	<g>
		<path class="st20" d="M219.3,98.76c-0.12-0.22-0.7-0.12-0.9-0.09c-5.18,0.9-10.05,5.84-10.05,5.84
			c-0.52,0.52-6.05,6.25-8.96,14.67c-0.28,0.82-1.25,3.62-0.8,3.84c0.37,0.18,1.54-1.5,2.07-2.24c1.03-1.44,4.39-5.16,11.12-12.6
			c2.39-2.64,4.17-5.84,6.76-8.28C218.71,99.74,219.46,99.05,219.3,98.76z"/>
	</g>
	<g>
		<g>
			<g>
				<g>
					<path class="st8" d="M182.15,234.37c-2.5-0.03-5.45-1.22-5.45-2.46c0-1.24,2.94-2.46,5.45-2.49c2.63-0.03,5.68,1.23,5.67,2.49
						C187.82,233.16,184.77,234.4,182.15,234.37z"/>
				</g>
			</g>
		</g>
	</g>
	<g>
		<path class="st21" d="M182.39,230.28c-0.21-0.55-2.48-0.32-4.02,0.63c-0.74,0.46-0.73,0.72-0.72,0.8c0.05,0.3,0.57,0.45,0.76,0.51
			c1.24,0.36,2.77-0.2,3.64-1.27C182.3,230.65,182.46,230.45,182.39,230.28z"/>
	</g>
	<g>
		<path class="st2" d="M214.74,231.72c-0.03-0.38-0.23-0.75-0.59-1.11c-1.12-1.11-3.68-1.93-5.95-1.9c-2.79,0.03-6.14,1.37-6.3,3.01
			c0,0-0.01,0-0.01,0c0,1.63,0,3.25,0,4.88c-0.01,0.37,0.06,0.65,0.12,0.82c0.7,1.98,4.22,2.59,6.3,2.59h0
			c3.13,0.12,5.65-0.78,6.28-2.44c0.1-0.27,0.17-0.59,0.15-0.98C214.75,234.97,214.75,233.34,214.74,231.72L214.74,231.72z
			 M208.21,229.64c0.03,0,0.06,0,0.09,0c1.97,0,4.28,0.72,5.2,1.63c0.16,0.16,0.26,0.31,0.3,0.45h-10.96
			C203.06,230.84,205.65,229.67,208.21,229.64z"/>
	</g>
	<g>
		<g>
			<g>
				<g>
					<path class="st8" d="M208.21,234.48c-2.5-0.03-5.45-1.22-5.45-2.46c0-1.24,2.94-2.46,5.45-2.49c2.63-0.03,5.68,1.23,5.67,2.49
						C213.88,233.27,210.83,234.51,208.21,234.48z"/>
				</g>
			</g>
		</g>
	</g>
	<g>
		<path class="st21" d="M208.45,230.39c-0.21-0.55-2.48-0.32-4.02,0.63c-0.74,0.46-0.73,0.72-0.72,0.8c0.05,0.3,0.57,0.45,0.76,0.51
			c1.24,0.36,2.77-0.2,3.64-1.27C208.36,230.77,208.52,230.57,208.45,230.39z"/>
	</g>
	<g>
		<path class="st3" d="M188.05,234.55c0.15,0.05,0.11,0.6,0.04,1.61c-0.05,0.7-0.07,1.05-0.13,1.23c-0.47,1.54-3.68,2.07-3.85,1.69
			c-0.11-0.24,1.19-0.6,2.45-2.24C187.51,235.62,187.83,234.48,188.05,234.55z"/>
	</g>
	<g>
		<path class="st3" d="M214.18,235.22c0.06,0.04,0.04,0.33,0,0.93c-0.05,0.8-0.08,1.21-0.08,1.23c-0.23,1.03-2.02,1.52-2.79,1.73
			c-2.03,0.56-4.03,0.48-4.06,0.25c-0.03-0.22,1.96-0.08,3.97-1.44C212.95,236.77,213.88,235.04,214.18,235.22z"/>
	</g>
	<g>
		<path class="st9" d="M177.99,232.97c-0.03,0.08,0.92,0.57,2.03,0.86c1.13,0.3,2.21,0.34,2.22,0.25c0.01-0.03-0.17-0.09-1.65-0.48
			C178.12,232.95,178,232.94,177.99,232.97z"/>
	</g>
	<g>
		<g>
			<path class="st2" d="M257.66,189.86c0,9.08,0,18.17,0,27.25c-2.36,2.17-13.04,11.5-29.52,11.49c-16.47,0-27.16-9.33-29.52-11.49
				c0-9.08,0-18.17,0-27.25"/>
		</g>
	</g>
	<g>
		<path class="st3" d="M259.93,189.86c-0.17-1.89-1.14-3.73-2.91-5.49c-5.45-5.42-17.57-8.07-28.68-8.07c-0.13,0-0.26,0-0.38,0
			c-13.89,0.12-30.84,5.38-31.59,13.57h-0.04v28.26l0.75,0.69c3.96,3.64,14.93,12.1,31.08,12.1c0,0,0,0,0,0
			c16.15,0,27.11-8.46,31.08-12.1l0.75-0.69v-28.26H259.93z M228.14,226.3C228.14,226.3,228.14,226.3,228.14,226.3
			c-13.62,0-23.14-6.69-27.22-10.22v-18.09c6.3,4.82,17.82,7.74,26.6,7.84c0.18,0,0.36,0,0.54,0c10.13,0,21.26-3.28,27.29-7.9v18.15
			C251.27,219.61,241.76,226.3,228.14,226.3z"/>
	</g>
	<g>
		<path class="st9" d="M204.27,233.25c-0.02,0.05,0.78,0.45,1.77,0.71c1.19,0.31,2.25,0.31,2.26,0.25c0.01-0.05-0.72-0.12-2.11-0.46
			C204.94,233.45,204.29,233.21,204.27,233.25z"/>
	</g>
	<g>
		<g>
			<g>
				<ellipse class="st7" cx="228.37" cy="189.86" rx="18.84" ry="7.87"/>
			</g>
		</g>
	</g>
	<g>
		<g>
			<g>
				<g>
					<path class="st9" d="M282.45,119.64v20.71c0,0.56,0.45,1.01,1.01,1.01h2.08c0.56,0,1.01-0.45,1.01-1.01v-20.71
						c0-0.56-0.45-1.01-1.01-1.01h-2.08C282.9,118.63,282.45,119.09,282.45,119.64z"/>
				</g>
			</g>
		</g>
	</g>
	<g>
		<g>
			<g>
				<g>
					<path class="st14" d="M280.55,120.38v13.91c0,0.51,0.42,0.93,0.93,0.93h0.99c0.51,0,0.93-0.42,0.93-0.93v-13.91
						c0-0.51-0.42-0.93-0.93-0.93h-0.99C280.96,119.45,280.55,119.87,280.55,120.38z"/>
				</g>
			</g>
		</g>
	</g>
	<g>
		<path class="st7" d="M254.26,204.83c0.43,0.11,0.37,1.85,0.25,5.33c-0.09,2.67-0.14,4.01-0.38,4.69
			c-0.31,0.87-1.23,2.76-7.71,5.75c-3.87,1.78-8.8,3.52-9.03,3.01c-0.26-0.58,6.21-2.18,11.03-8.12
			C252.58,210.37,253.43,204.61,254.26,204.83z"/>
	</g>
	<g>
		<g>
			<g>
				<path class="st8" d="M297.4,137.03c0.01,1.4,0.01,2.8,0.02,4.2c-0.01,0.29-0.09,1.17-0.78,1.98c-0.65,0.76-1.45,1.02-1.75,1.1
					c-1.74,0.01-3.48,0.02-5.22,0.03c0.98-0.26,3.12-0.96,5.04-2.85C296.42,139.79,297.12,137.96,297.4,137.03z"/>
			</g>
		</g>
	</g>
	<g>
		<path class="st2" d="M309.09,263.26c0.27,0.46,0.25,1.94,0.21,4.9c-0.03,2.22-0.05,3.33-0.21,3.76c-1.24,3.27-9.93,2.4-22.41,2.37
			c-11.34-0.03-16.52,0.64-16.7-0.38c-0.12-0.67,1.99-1.6,9.93-4.35C303.36,261.44,308.06,261.54,309.09,263.26z"/>
	</g>
	<path class="st17" d="M174.01,187.23c0.05-0.12,0.92,0.11,1.71,0.32c1.39,0.37,2.4,0.81,2.63,0.92c3.12,1.41,5.49,2.57,7.7,3.58
		c0.72,0.33,3.79,1.72,5.74,2.89c0.21,0.12,0.89,0.54,1.71,1.2c0.62,0.5,1.54,1.25,1.46,1.4c-0.17,0.28-4.13-1.92-9.39-4.57
		C178.89,189.6,173.89,187.53,174.01,187.23z"/>
	<g>
		<path class="st1" d="M179.15,186.47c0.05-0.08,0.95,0.4,1.52,0.7c1.29,0.68,2.6,1.33,3.9,2c1.2,0.62,1.09,0.52,3.74,1.81
			c3.12,1.51,4.68,2.27,4.66,2.31c-0.15,0.41-12.29-5.54-13.54-6.53C179.35,186.69,179.12,186.51,179.15,186.47z"/>
	</g>
	<g>
		<path class="st7" d="M176.77,171.88c0.17-0.03,1.09,2.17,0.87,4.73c-0.14,1.63-0.71,3-1.01,3.72c-0.3,0.71-0.75,1.64-0.85,1.61
			c-0.14-0.05,0.83-2.07,1.16-4.73C177.33,174.06,176.6,171.91,176.77,171.88z"/>
	</g>
	<g>
		<path class="st13" d="M164.23,159.93c-0.11-0.02-0.26,0.65-0.51,1.8c-0.08,0.38-0.12,0.61,0,0.82c0.14,0.24,0.4,0.29,0.91,0.44
			c0.98,0.31,1.42,0.58,1.46,0.51c0.06-0.12-1.1-0.51-1.61-1.59C164.02,160.93,164.37,159.95,164.23,159.93z"/>
	</g>
	<g>
		<path class="st7" d="M169.79,150.53c0.09-0.27,0.39-1.12,0.44-1.1c0.05,0.02-0.13,0.77-0.42,2.07c-0.19,0.86-0.15,0.75-0.44,2.2
			c-0.32,1.57-0.76,3.67-0.87,3.66c-0.07-0.01,0.03-0.98,0.06-1.31c0.12-1.12,0.3-2.22,0.57-3.32
			C169.19,152.51,169.4,151.64,169.79,150.53z"/>
	</g>
	<g>
		<path class="st17" d="M282.38,187.16c-0.05-0.12-0.92,0.11-1.71,0.32c-1.39,0.37-2.4,0.81-2.63,0.92
			c-3.12,1.41-5.49,2.57-7.7,3.58c-0.72,0.33-3.79,1.72-5.74,2.89c-0.21,0.12-0.89,0.54-1.71,1.2c-0.62,0.5-1.54,1.25-1.46,1.4
			c0.17,0.28,4.13-1.92,9.39-4.57C277.5,189.53,282.5,187.45,282.38,187.16z"/>
	</g>
	<g>
		<path class="st1" d="M277.25,186.39c-0.05-0.08-0.95,0.4-1.52,0.7c-1.29,0.68-2.6,1.33-3.9,2c-1.2,0.62-1.09,0.52-3.74,1.81
			c-3.12,1.51-4.68,2.27-4.66,2.31c0.15,0.41,12.29-5.54,13.54-6.53C277.04,186.62,277.27,186.44,277.25,186.39z"/>
	</g>
	<g>
		<path class="st7" d="M279.62,171.8c-0.17-0.03-1.09,2.17-0.87,4.73c0.14,1.63,0.71,3,1.01,3.72c0.3,0.71,0.75,1.64,0.85,1.61
			c0.14-0.05-0.83-2.07-1.16-4.73C279.06,173.99,279.79,171.83,279.62,171.8z"/>
	</g>
	<g>
		<path class="st13" d="M292.16,159.86c0.11-0.02,0.26,0.65,0.51,1.8c0.08,0.38,0.12,0.61,0,0.82c-0.14,0.24-0.4,0.29-0.91,0.44
			c-0.98,0.31-1.42,0.58-1.46,0.51c-0.06-0.12,1.1-0.51,1.61-1.59C292.37,160.86,292.02,159.88,292.16,159.86z"/>
	</g>
	<g>
		<path class="st7" d="M286.6,150.45c-0.09-0.27-0.39-1.12-0.44-1.1c-0.05,0.02,0.13,0.77,0.42,2.07c0.19,0.86,0.15,0.75,0.44,2.2
			c0.32,1.57,0.76,3.67,0.87,3.66c0.07-0.01-0.03-0.98-0.06-1.31c-0.12-1.12-0.3-2.22-0.57-3.32
			C287.2,152.44,286.99,151.56,286.6,150.45z"/>
	</g>
	<g>
		<path class="st4" d="M213,181.49c-0.18-0.35-13.51,2.74-13.36,8.79c0.12,4.82,8.7,8.15,9.05,7.69c0.3-0.4-5.82-3.48-5.66-7.69
			C203.22,185,213.15,181.8,213,181.49z"/>
	</g>
	<g>
		<path class="st4" d="M246.14,185.04c0.34-0.35,5.47,1.9,5.5,5.5c0.04,4.42-7.68,6.09-7.95,5.66c-0.23-0.36,4.92-2.54,5.04-6.16
			C248.81,187.25,245.87,185.33,246.14,185.04z"/>
	</g>
	<g>
		<path class="st1" d="M202.26,200.35c-0.78,0.09-0.34,3.85-0.51,12.09c-0.01,0.67-0.04,1.94,0.68,3.21
			c0.55,0.98,1.32,1.54,2.54,2.45c1.57,1.17,2.35,1.75,2.71,1.52c0.74-0.48-1.48-3.46-2.37-8.88c-0.4-2.47-0.27-3.87-1.18-6.68
			C203.66,202.66,202.89,200.27,202.26,200.35z"/>
	</g>
	<g>
		<path class="st3" d="M221.86,184.61c-0.04-0.2-1.76-0.1-2.98,0.14c-2.5,0.5-6.55,2.36-6.55,4.86c0,2,2.59,3.45,3.68,4.06
			c2.93,1.64,6.24,1.46,6.3,1.18c0.02-0.1-0.41-0.2-1.18-0.55c-1.55-0.69-4.8-2.17-5.07-4.44c-0.17-1.46,0.96-2.69,1.06-2.79
			c0.75-0.78,1.93-1.25,3.76-1.99C221.46,184.85,221.88,184.71,221.86,184.61z"/>
	</g>
	<g>
		<path class="st3" d="M218.41,189.61c0-2.02,5.66-4.21,10.74-3.8c3.69,0.3,8.32,2.06,8.29,3.89c-0.03,2.07-6.09,4.26-11.41,3.64
			C222.8,192.95,218.41,191.39,218.41,189.61z"/>
	</g>
	<g>
		<path class="st3" d="M236.29,187.03c0.19-0.31,4.44,1.05,4.48,2.79c0.06,2.26-7.02,3.87-7.1,3.68c-0.07-0.16,4.83-1.52,4.86-3.68
			C238.55,188.3,236.14,187.27,236.29,187.03z"/>
	</g>
	<g>
		<path class="st4" d="M208.47,188c-0.28-0.07-2.43,3.21-1.06,5.79c1.29,2.42,4.86,2.67,4.99,2.37c0.12-0.27-2.57-0.87-3.72-3.26
			C207.54,190.54,208.72,188.06,208.47,188z"/>
	</g>
</g>
</svg>