<svg width="3200" height="1052" xmlns="http://www.w3.org/2000/svg">
 <metadata id="metadata3359">image/svg+xml</metadata>

 <g>
  <title>background</title>
  <rect fill="none" id="canvas_background" height="1054" width="3202" y="-1" x="-1"/>
 </g>
 <g>
  <title>Layer 1</title>
  <g stroke="null" id="g3337">
   <g stroke="null" id="g3339">
    <path stroke="#ffffff" clip-rule="evenodd" fill="none" fill-rule="evenodd" id="path3341" d="m-38.502326,1007.745636l2.3,-1.821686l8.6,0l-5.8,7.489153l5.2,0.101205m-8,3.137348l4,0l3.4,4.857829l-7.7,0l-2.3,-1.619276c0,0 -1.8,1.315662 -3.9,1.821686c-1.9,0.506024 -4.1,0.20241 -4.1,0.20241l-0.9,2.833734l-7.9,0" stroke-miterlimit="10"/>
    <path stroke="#ffffff" clip-rule="evenodd" fill="none" fill-rule="evenodd" id="path3343" d="m-54.302326,1022.116713c-8.4,-0.506024 -15.8,-4.554215 -16.2,-8.90602c0,-0.101205 0,-0.20241 0,-0.303614c0,0 0,-0.404819 0,-0.404819c0,-4.857829 7.9,-9.209634 17.6,-9.209634c6.6,0 12.8,2.024095 15.8,4.655419" stroke-miterlimit="10"/>
    <path stroke="#ffffff" clip-rule="evenodd" fill="none" fill-rule="evenodd" id="path3345" d="m-48.202326,1013.109489l-22.2,0" stroke-miterlimit="10"/>
   </g>
   <g stroke="null" transform="matrix(16.260806,0,0,16.886997428333757,-18.24364,-956.6572775023992) " id="g3347">
    <path stroke="#000000" fill="none" stroke-width="2" id="path3349" d="m42.211066,79.209302l2.3,-1.8l8.6,0l-5.8,7.4l5.2,0.1m-8,3.1l4,0l3.4,4.8l-7.7,0l-2.3,-1.6c0,0 -1.8,1.3 -3.9,1.8c-1.9,0.5 -4.1,0.2 -4.1,0.2l-0.9,2.8l-7.9,0"/>
    <path stroke="#000000" fill="none" stroke-width="2" id="path3351" d="m26.411066,93.409302c-8.4,-0.5 -15.8,-4.5 -16.2,-8.8c0,-0.1 0,-0.2 0,-0.3c0,0 0,-0.4 0,-0.4c0,-4.8 7.9,-9.1 17.6,-9.1c6.6,0 12.8,2 15.8,4.6"/>
    <path stroke="#000000" fill="none" stroke-width="2" id="path3353" d="m32.511066,84.509302l-22.2,0"/>
   </g>
   <rect stroke="null" y="1198.870843" x="995.247674" height="537.650336" width="2718.75" id="rect3365"/>
   <rect stroke="null" y="1217.846737" x="907.747674" height="600.903317" width="2475" id="rect3373"/>dirigible</g>
  <text stroke="#000" transform="matrix(1.8870493844201863,0,0,1.6793351449352598,-1023.8269422525345,-323.99570316857074) " font-weight="bold" xml:space="preserve" text-anchor="start" font-family="'Trebuchet MS', Gadget, sans-serif" font-size="250" id="svg_1" y="561.33609" x="1033.987284" stroke-width="0" fill="#000000">dirigible</text>
 </g>
</svg>